<svg width="25" height="25" viewBox="0 0 25 25" fill="none" xmlns="http://www.w3.org/2000/svg">
<path d="M17.225 25V15.325H20.4653L20.95 11.5639H17.225V9.16389C17.225 8.075 17.5278 7.33194 19.0889 7.33194H21.0806V3.96806C20.1164 3.86576 19.1474 3.81615 18.1778 3.81944C15.3069 3.81944 13.3417 5.57222 13.3417 8.79167V11.5639H10.0944V15.325H13.3417V25H1.38889C1.02053 25 0.667263 24.8537 0.406796 24.5932C0.146329 24.3327 0 23.9795 0 23.6111V1.38889C0 1.02053 0.146329 0.667263 0.406796 0.406796C0.667263 0.146329 1.02053 0 1.38889 0H23.6111C23.9795 0 24.3327 0.146329 24.5932 0.406796C24.8537 0.667263 25 1.02053 25 1.38889V23.6111C25 23.9795 24.8537 24.3327 24.5932 24.5932C24.3327 24.8537 23.9795 25 23.6111 25H17.225Z" fill="#FCFCFC"/>
</svg>
