<svg width="25" height="25" viewBox="0 0 25 25" fill="none" xmlns="http://www.w3.org/2000/svg">
<path d="M13.7844 0C15.1912 0.00232508 15.9041 0.00976285 16.5201 0.028101L16.7627 0.0360388C17.043 0.0460016 17.3195 0.0585022 17.6529 0.0741278C18.983 0.13558 19.8905 0.346012 20.6874 0.655397C21.5113 0.973108 22.2072 1.4023 22.9019 2.09711C23.5957 2.79192 24.025 3.48987 24.3437 4.31177C24.652 5.10762 24.8625 6.01599 24.925 7.34625C24.9399 7.67959 24.9519 7.9561 24.9618 8.23642L24.9696 8.47903C24.9879 9.09499 24.9963 9.80798 24.9989 11.2148L24.9999 12.1469C25 12.2608 25 12.3783 25 12.4996L24.9999 12.8522L24.9991 13.7844C24.9967 15.1912 24.9894 15.9041 24.971 16.5201L24.963 16.7627C24.9531 17.043 24.9406 17.3195 24.925 17.6529C24.8635 18.983 24.652 19.8905 24.3437 20.6874C24.026 21.5113 23.5957 22.2072 22.9019 22.9019C22.2072 23.5957 21.5081 24.025 20.6874 24.3437C19.8905 24.652 18.983 24.8625 17.6529 24.925C17.3195 24.9399 17.043 24.9519 16.7627 24.9618L16.5201 24.9696C15.9041 24.9879 15.1912 24.9963 13.7844 24.9989L12.8522 24.9999C12.7383 25 12.6208 25 12.4996 25L12.1469 24.9999L11.2148 24.9991C9.80798 24.9967 9.09499 24.9894 8.47903 24.971L8.23642 24.963C7.9561 24.9531 7.67959 24.9406 7.34625 24.925C6.01599 24.8635 5.10971 24.652 4.31177 24.3437C3.48882 24.026 2.79192 23.5957 2.09711 22.9019C1.4023 22.2072 0.974158 21.5081 0.655397 20.6874C0.346012 19.8905 0.13663 18.983 0.0741278 17.6529C0.0592772 17.3195 0.0471642 17.043 0.0373513 16.7627L0.0294886 16.5201C0.0112005 15.9041 0.00286282 15.1912 0.000162726 13.7844L0 11.2148C0.00232508 9.80798 0.00976285 9.09499 0.028101 8.47903L0.0360388 8.23642C0.0460016 7.9561 0.0585022 7.67959 0.0741278 7.34625C0.13558 6.01495 0.346012 5.10867 0.655397 4.31177C0.973108 3.48882 1.4023 2.79192 2.09711 2.09711C2.79192 1.4023 3.48987 0.974158 4.31177 0.655397C5.10867 0.346012 6.01495 0.13663 7.34625 0.0741278C7.67959 0.0592772 7.9561 0.0471642 8.23642 0.0373513L8.47903 0.0294886C9.09499 0.0112005 9.80798 0.00286282 11.2148 0.000162726L13.7844 0ZM12.4996 6.24934C9.04581 6.24934 6.24934 9.04885 6.24934 12.4996C6.24934 15.9533 9.04885 18.7498 12.4996 18.7498C15.9533 18.7498 18.7498 15.9502 18.7498 12.4996C18.7498 9.04581 15.9502 6.24934 12.4996 6.24934ZM12.4996 8.74942C14.5708 8.74942 16.2497 10.4278 16.2497 12.4996C16.2497 14.5708 14.5713 16.2497 12.4996 16.2497C10.4284 16.2497 8.74942 14.5713 8.74942 12.4996C8.74942 10.4284 10.4278 8.74942 12.4996 8.74942ZM19.0623 4.37427C18.2006 4.37427 17.4997 5.07417 17.4997 5.93576C17.4997 6.79734 18.1996 7.49833 19.0623 7.49833C19.9238 7.49833 20.6249 6.79843 20.6249 5.93576C20.6249 5.07417 19.9227 4.37319 19.0623 4.37427Z" fill="#FCFCFC"/>
</svg>
