<svg width="31" height="25" viewBox="0 0 31 25" fill="none" xmlns="http://www.w3.org/2000/svg">
<path d="M30.9985 2.96777C29.8374 3.47716 28.6062 3.8117 27.3455 3.96032C28.6743 3.17207 29.6689 1.9315 30.1438 0.469802C28.8967 1.20592 27.5295 1.7218 26.1045 2.00087C25.1474 0.985053 23.8786 0.311361 22.4956 0.0845249C21.1126 -0.142311 19.6928 0.0904173 18.4568 0.74653C17.2209 1.40264 16.2382 2.44538 15.6614 3.71263C15.0846 4.97988 14.946 6.40064 15.2673 7.75404C12.7384 7.62832 10.2644 6.97648 8.00593 5.84084C5.74747 4.7052 3.75505 3.11115 2.15802 1.16217C1.59272 2.12524 1.29565 3.22002 1.29724 4.33442C1.29724 6.52165 2.41959 8.45396 4.12593 9.58528C3.11613 9.55375 2.12856 9.28327 1.24554 8.79637V8.87481C1.24584 10.3315 1.75404 11.7433 2.68398 12.8707C3.61392 13.9982 4.90836 14.772 6.34782 15.0609C5.41042 15.3129 4.42752 15.35 3.47351 15.1695C3.87936 16.4234 4.67039 17.52 5.73584 18.3057C6.80129 19.0915 8.08781 19.5271 9.41528 19.5515C8.09595 20.5793 6.58534 21.339 4.96979 21.7873C3.35425 22.2356 1.66547 22.3636 0 22.1641C2.90731 24.0187 6.2917 25.0032 9.74833 25C21.4479 25 27.8459 15.3867 27.8459 7.0496C27.8459 6.77808 27.8383 6.50355 27.8261 6.23505C29.0714 5.3423 30.1462 4.2364 31 2.96928L30.9985 2.96777Z" fill="#FCFCFC"/>
</svg>
