<svg width="31" height="25" viewBox="0 0 31 25" fill="none" xmlns="http://www.w3.org/2000/svg">
<path d="M30.2916 3.90313C31 6.6875 31 12.5 31 12.5C31 12.5 31 18.3125 30.2916 21.0969C29.8979 22.6359 28.7463 23.8469 27.2877 24.2563C24.6388 25 15.5 25 15.5 25C15.5 25 6.36585 25 3.71225 24.2563C2.2475 23.8406 1.0974 22.6313 0.70835 21.0969C4.61936e-08 18.3125 0 12.5 0 12.5C0 12.5 4.61936e-08 6.6875 0.70835 3.90313C1.10205 2.36406 2.2537 1.15312 3.71225 0.74375C6.36585 -2.79397e-07 15.5 0 15.5 0C15.5 0 24.6388 -2.79397e-07 27.2877 0.74375C28.7525 1.15937 29.9026 2.36875 30.2916 3.90313ZM12.4 17.9688L21.7 12.5L12.4 7.03125V17.9688Z" fill="#FCFCFC"/>
</svg>
