<svg width="64" height="64" viewBox="0 0 64 64" fill="none" xmlns="http://www.w3.org/2000/svg">
<path d="M49.0296 32C55.1921 23.3475 58.3346 14.405 53.9646 10.035C49.5946 5.665 40.6521 8.8075 31.9996 14.97C23.3471 8.8075 14.4046 5.665 10.0346 10.035C5.66463 14.405 8.80713 23.3475 14.9696 32C8.80713 40.6525 5.66463 49.595 10.0346 53.965C11.4421 55.3725 13.3221 56 15.5121 56C20.1321 56 26.1321 53.2075 32.0121 49.03C37.8671 53.2075 43.8671 56 48.4996 56C50.6896 56 52.5721 55.37 53.9771 53.965C58.3346 49.595 55.1921 40.6525 49.0296 32ZM51.1371 12.8625C53.0471 14.7725 51.7571 20.9625 46.5071 28.6825C44.8462 26.6265 43.0779 24.6596 41.2096 22.79C39.3399 20.9242 37.373 19.1585 35.3171 17.5C43.0371 12.25 49.2271 10.95 51.1371 12.8625ZM44.0721 32C42.3031 34.2379 40.4031 36.3691 38.3821 38.3825C36.3688 40.4034 34.2375 42.3034 31.9996 44.0725C29.7617 42.3034 27.6305 40.4034 25.6171 38.3825C23.5962 36.3691 21.6962 34.2379 19.9271 32C23.4764 27.5274 27.527 23.4768 31.9996 19.9275C34.2375 21.6966 36.3688 23.5965 38.3821 25.6175C40.4031 27.6309 42.3031 29.7621 44.0721 32ZM12.8621 12.8625C13.4121 12.31 14.3196 12.025 15.5171 12.025C18.4721 12.025 23.1896 13.75 28.6796 17.5C26.6257 19.1598 24.6597 20.9255 22.7896 22.79C20.9239 24.6597 19.1581 26.6266 17.4996 28.6825C12.2496 20.9625 10.9521 14.7725 12.8621 12.8625ZM12.8621 51.1375C10.9521 49.2275 12.2496 43.0375 17.4996 35.3175C19.1605 37.3735 20.9288 39.3404 22.7971 41.21C24.6657 43.0743 26.63 44.84 28.6821 46.5C20.9621 51.75 14.7721 53.05 12.8621 51.1375ZM51.1371 51.1375C49.2271 53.05 43.0371 51.7575 35.3171 46.5075C37.372 44.8453 39.3389 43.077 41.2096 41.21C43.0754 39.3402 44.8412 37.3733 46.4996 35.3175C51.7496 43.0375 53.0471 49.2275 51.1371 51.1375ZM34.9996 32C34.9996 32.5933 34.8237 33.1734 34.494 33.6667C34.1644 34.1601 33.6959 34.5446 33.1477 34.7716C32.5995 34.9987 31.9963 35.0581 31.4144 34.9424C30.8324 34.8266 30.2979 34.5409 29.8783 34.1213C29.4588 33.7018 29.173 33.1672 29.0573 32.5853C28.9415 32.0033 29.0009 31.4001 29.228 30.8519C29.4551 30.3038 29.8396 29.8352 30.3329 29.5056C30.8263 29.1759 31.4063 29 31.9996 29C32.7953 29 33.5583 29.3161 34.1209 29.8787C34.6836 30.4413 34.9996 31.2043 34.9996 32Z" fill="white"/>
</svg>
