<svg width="64" height="64" viewBox="0 0 64 64" fill="none" xmlns="http://www.w3.org/2000/svg">
<path d="M50.3853 13.615C45.5093 8.73901 38.896 5.99969 32.0003 5.99969C25.1046 5.99969 18.4913 8.73901 13.6153 13.615C8.73931 18.491 6 25.1043 6 32C6 38.8957 8.73931 45.509 13.6153 50.385C18.4913 55.261 25.1046 58.0003 32.0003 58.0003C38.896 58.0003 45.5093 55.261 50.3853 50.385C55.2613 45.509 58.0006 38.8957 58.0006 32C58.0006 25.1043 55.2613 18.491 50.3853 13.615ZM47.5578 16.445C48.5833 17.4749 49.5045 18.6038 50.3078 19.815L41.8878 29.75L34.9078 10.195C39.7 10.821 44.149 13.0191 47.5578 16.445ZM38.8978 33.25L34.3578 38.5925L27.4603 37.3425L25.1028 30.75L29.6428 25.4075L36.5403 26.6575L38.8978 33.25ZM16.4428 16.445C20.22 12.6473 25.2613 10.3704 30.6078 10.0475L34.9853 22.2975L14.5753 18.58C15.1512 17.8289 15.775 17.1158 16.4428 16.445ZM11.6628 40.385C10.476 37.4868 9.91863 34.3694 10.0277 31.2395C10.1367 28.1096 10.9097 25.0386 12.2953 22.23L25.0978 24.5675L11.6628 40.385ZM16.4428 47.555C15.4173 46.5251 14.4962 45.3963 13.6928 44.185L22.1128 34.25L29.0928 53.795C24.3019 53.1718 19.853 50.9772 16.4428 47.555ZM47.5578 47.555C43.7806 51.3527 38.7393 53.6296 33.3928 53.9525L29.0153 41.7025L49.4253 45.43C48.849 46.1777 48.2253 46.8875 47.5578 47.555ZM38.9028 39.4325L52.3378 23.615C53.5246 26.5132 54.082 29.6306 53.973 32.7605C53.8639 35.8904 53.091 38.9614 51.7053 41.77L38.9028 39.4325Z" fill="white"/>
</svg>
